<svg width="554" height="143" viewBox="0 0 554 143" fill="none" xmlns="http://www.w3.org/2000/svg">
<path fill-rule="evenodd" clip-rule="evenodd" d="M23.4681 141.722C21.8167 141.409 20.2173 140.958 18.6785 140.379C20.2173 140.958 21.8167 141.409 23.4681 141.722Z" fill="white"/>
<path fill-rule="evenodd" clip-rule="evenodd" d="M9.99335 135.193C9.63155 134.887 9.27896 134.566 8.93726 134.236C9.27896 134.566 9.63155 134.887 9.99335 135.193Z" fill="white"/>
<path fill-rule="evenodd" clip-rule="evenodd" d="M11.325 136.287C10.9262 135.98 10.5341 135.662 10.1521 135.335C10.5341 135.662 10.9262 135.98 11.325 136.287Z" fill="white"/>
<path fill-rule="evenodd" clip-rule="evenodd" d="M25.1405 141.982C24.6502 141.918 24.1599 141.842 23.6763 141.759C24.1599 141.842 24.6502 141.918 25.1405 141.982Z" fill="white"/>
<path fill-rule="evenodd" clip-rule="evenodd" d="M14.1012 138.169C13.1601 137.609 12.2551 136.995 11.3845 136.333C12.2551 136.992 13.1601 137.609 14.1012 138.169Z" fill="white"/>
<path fill-rule="evenodd" clip-rule="evenodd" d="M16.9273 139.645C16.5243 139.46 16.1263 139.272 15.7317 139.066C16.1263 139.272 16.5243 139.46 16.9273 139.645Z" fill="white"/>
<path fill-rule="evenodd" clip-rule="evenodd" d="M18.5198 140.319C18.0773 140.145 17.6357 139.963 17.2034 139.769C17.6357 139.963 18.0773 140.145 18.5198 140.319Z" fill="white"/>
<path fill-rule="evenodd" clip-rule="evenodd" d="M15.4756 138.936C15.0373 138.705 14.6033 138.467 14.1785 138.213C14.6033 138.467 15.0373 138.705 15.4756 138.936Z" fill="white"/>
<path fill-rule="evenodd" clip-rule="evenodd" d="M8.80537 134.114C7.24377 132.599 5.85097 130.912 4.65967 129.088C5.85097 130.912 7.24207 132.599 8.80537 134.114Z" fill="white"/>
<path fill-rule="evenodd" clip-rule="evenodd" d="M26.964 142.164C26.4217 142.129 25.8877 142.074 25.3572 142.01C25.8877 142.074 26.4217 142.129 26.964 142.164Z" fill="white"/>
<path fill-rule="evenodd" clip-rule="evenodd" d="M18.6785 140.379C18.6264 140.356 18.5718 140.335 18.5198 140.319C18.5718 140.335 18.6264 140.356 18.6785 140.379Z" fill="white"/>
<path fill-rule="evenodd" clip-rule="evenodd" d="M25.3571 142.01C25.2865 142.002 25.2127 141.996 25.1405 141.982C25.2127 141.996 25.2865 142.002 25.3571 142.01Z" fill="white"/>
<path fill-rule="evenodd" clip-rule="evenodd" d="M17.2034 139.769C17.111 139.731 17.0187 139.688 16.9272 139.645C17.0187 139.688 17.111 139.731 17.2034 139.769Z" fill="white"/>
<path fill-rule="evenodd" clip-rule="evenodd" d="M23.6763 141.759C23.6091 141.742 23.5378 141.73 23.4681 141.722C23.5378 141.73 23.6091 141.742 23.6763 141.759Z" fill="white"/>
<path fill-rule="evenodd" clip-rule="evenodd" d="M27.0017 142.17C26.9883 142.164 26.974 142.164 26.9639 142.164C26.974 142.164 26.9883 142.17 27.0017 142.17Z" fill="white"/>
<path fill-rule="evenodd" clip-rule="evenodd" d="M4.64539 129.059C4.64939 129.073 4.65548 129.082 4.65968 129.088C4.65568 129.082 4.64959 129.073 4.64539 129.059Z" fill="white"/>
<path fill-rule="evenodd" clip-rule="evenodd" d="M112.566 27.455C112.586 27.9235 112.599 28.392 112.599 28.8663C112.599 28.392 112.589 27.9235 112.566 27.455Z" fill="white"/>
<path fill-rule="evenodd" clip-rule="evenodd" d="M112.599 31.2002V28.8663L112.599 31.2061C112.599 31.2061 112.599 31.2061 112.599 31.2001V31.2002Z" fill="white"/>
<path fill-rule="evenodd" clip-rule="evenodd" d="M8.93723 134.236C8.89273 134.196 8.84742 134.152 8.80542 134.115C8.84742 134.152 8.89273 134.196 8.93723 134.236Z" fill="white"/>
<path fill-rule="evenodd" clip-rule="evenodd" d="M15.7316 139.066C15.6443 139.023 15.5595 138.98 15.4756 138.936C15.5595 138.98 15.6443 139.023 15.7316 139.066Z" fill="white"/>
<path fill-rule="evenodd" clip-rule="evenodd" d="M14.1785 138.213C14.1525 138.195 14.1273 138.184 14.1012 138.169C14.1273 138.184 14.1525 138.195 14.1785 138.213Z" fill="white"/>
<path fill-rule="evenodd" clip-rule="evenodd" d="M10.152 135.335C10.0974 135.289 10.0454 135.243 9.99329 135.193C10.0454 135.243 10.0974 135.289 10.152 135.335Z" fill="white"/>
<path fill-rule="evenodd" clip-rule="evenodd" d="M11.3846 136.333C11.3653 136.318 11.3451 136.301 11.325 136.287C11.3451 136.301 11.3653 136.318 11.3846 136.333Z" fill="white"/>
<path fill-rule="evenodd" clip-rule="evenodd" d="M91.3757 142.202C82.3657 118.054 69.9958 99.421 56.6386 85.0983C41.2027 107.078 31.9458 128.524 27.0017 142.17C27.6188 142.204 28.2375 142.23 28.8638 142.23L91.3757 142.202Z" fill="#C00415"/>
<path fill-rule="evenodd" clip-rule="evenodd" d="M45.6582 74.4318C29.6086 60.2795 13.1241 51.5701 0.0019989 46.2751L0 113.368C0 119.161 1.7093 124.544 4.6452 129.059C12.4816 109.909 28.1685 91.0565 45.6579 74.4318H45.6582Z" fill="#C00415"/>
<path fill-rule="evenodd" clip-rule="evenodd" d="M57.9332 63.3338C78.6062 45.5027 99.7201 31.2262 112.069 23.3588C112.325 24.692 112.494 26.0604 112.566 27.4549C111.829 12.1684 99.2037 0 83.7326 0L0.00274658 0.0411987L0.00195312 45.9913L0.00274658 41.0833C22.0543 45.1089 41.541 53.5548 57.9332 63.3338V63.3338Z" fill="#C00415"/>
<path fill-rule="evenodd" clip-rule="evenodd" d="M68.3042 69.9395C90.8251 85.2545 106.133 101.966 112.552 109.582L112.599 31.2061C94.7701 42.3033 80.1611 55.8687 68.3042 69.9395Z" fill="#C00415"/>
<path fill-rule="evenodd" clip-rule="evenodd" d="M545.711 39.3328C547.027 39.3328 548.313 39.6702 549.569 40.3477C550.821 41.0227 551.801 41.9917 552.5 43.2476C553.2 44.5078 553.551 45.8208 553.551 47.1843C553.551 48.5359 553.207 49.8388 552.515 51.0847C551.826 52.3339 550.861 53.3028 549.615 53.9912C548.369 54.683 547.067 55.0273 545.711 55.0273C544.352 55.0273 543.049 54.683 541.803 53.9912C540.557 53.3028 539.588 52.3339 538.896 51.0847C538.205 49.8388 537.856 48.5359 537.856 47.1843C537.856 45.8208 538.208 44.5078 538.911 43.2476C539.617 41.9917 540.597 41.0227 541.849 40.3477C543.106 39.6702 544.39 39.3328 545.711 39.3328V39.3328ZM545.711 40.6324C544.607 40.6324 543.532 40.9161 542.488 41.4803C541.444 42.0445 540.628 42.8538 540.039 43.9041C539.451 44.9552 539.156 46.0484 539.156 47.1843C539.156 48.316 539.446 49.3982 540.025 50.435C540.603 51.471 541.413 52.2803 542.453 52.8588C543.493 53.4372 544.578 53.7285 545.711 53.7285C546.839 53.7285 547.926 53.4372 548.965 52.8588C550.005 52.2803 550.815 51.471 551.39 50.435C551.965 49.3982 552.252 48.316 552.252 47.1843C552.252 46.0484 551.957 44.9552 551.372 43.9041C550.786 42.8538 549.97 42.0445 548.923 41.4803C547.876 40.9161 546.804 40.6324 545.711 40.6324V40.6324ZM542.265 51.5138V43.0814H545.168C546.162 43.0814 546.879 43.1595 547.322 43.3156C547.77 43.4718 548.121 43.7413 548.387 44.1317C548.649 44.5187 548.781 44.93 548.781 45.3665C548.781 45.9803 548.561 46.5202 548.117 46.9744C547.677 47.4319 547.091 47.6879 546.36 47.7441C546.659 47.8684 546.9 48.0179 547.077 48.1917C547.418 48.5217 547.833 49.0791 548.326 49.8633L549.356 51.5138H547.702L546.949 50.1865C546.36 49.1396 545.881 48.4829 545.52 48.2202C545.271 48.0287 544.908 47.9331 544.43 47.9365H543.627V51.5138H542.265ZM543.627 46.7653H545.281C546.073 46.7653 546.613 46.6477 546.9 46.4135C547.187 46.1792 547.333 45.867 547.333 45.4842C547.333 45.2357 547.262 45.0115 547.123 44.8167C546.985 44.6178 546.793 44.4724 546.549 44.3767C546.3 44.2802 545.845 44.2307 545.179 44.2307H543.627V46.7653Z" fill="white"/>
<path fill-rule="evenodd" clip-rule="evenodd" d="M138.042 91.1873V39.8633H159.157C163.825 39.8633 167.523 40.1437 170.254 40.6936C172.982 41.2343 175.264 42.1133 177.104 43.3197C179.469 44.9224 181.232 46.9147 182.394 49.2839C183.558 51.6497 184.14 54.4605 184.14 57.7146C184.14 63.447 182.441 67.8437 179.05 70.9039C175.66 73.9548 170.773 75.4794 164.382 75.4794H154.524V91.1873H138.042ZM154.524 62.9299H159.819C163.257 62.9299 165.556 62.5512 166.715 61.7847C167.88 61.0149 168.46 59.6615 168.46 57.7146C168.46 55.7366 167.903 54.3656 166.791 53.5991C165.673 52.8326 163.349 52.4448 159.819 52.4448H154.524V62.9299Z" fill="#C00415"/>
<path fill-rule="evenodd" clip-rule="evenodd" d="M190.269 91.1873V39.8633H205.462V91.1873H190.269Z" fill="#C00415"/>
<path fill-rule="evenodd" clip-rule="evenodd" d="M241 91.1873L240.061 87.5689C238.132 89.2614 236.052 90.5224 233.823 91.3318C231.592 92.1419 229.085 92.5526 226.295 92.5526C222.022 92.5526 218.718 91.503 216.382 89.4C214.05 87.3036 212.885 84.3299 212.885 80.5008C212.885 76.7522 214.032 73.9926 216.332 72.2052C218.629 70.4178 222.975 69.119 229.361 68.3038C230.172 68.188 231.267 68.0553 232.636 67.9243C237.4 67.413 239.779 66.1781 239.779 64.2253C239.779 63.1381 239.341 62.3363 238.472 61.8418C237.604 61.3389 236.226 61.0871 234.346 61.0871C232.788 61.0871 231.592 61.4027 230.757 62.0156C229.922 62.6318 229.432 63.5805 229.29 64.8583H214.591C214.661 60.601 216.402 57.3964 219.818 55.2211C223.233 53.0492 228.249 51.962 234.868 51.962C237.98 51.962 240.854 52.2542 243.488 52.8326C246.124 53.4111 248.176 54.1952 249.641 55.1699C251.428 56.373 252.685 57.7465 253.401 59.2619C254.12 60.784 254.485 62.9584 254.485 65.7927V86.9073C254.485 87.6008 254.624 88.2229 254.9 88.7669C255.179 89.3219 255.585 89.7618 256.121 90.1119V91.1873H241ZM239.605 74.3024C238.166 74.8456 236.246 75.4391 233.857 76.0663C230.094 77.0729 228.215 78.4094 228.215 80.0751C228.215 81.148 228.585 81.9817 229.325 82.5921C230.07 83.1907 231.127 83.4879 232.498 83.4879C235.008 83.4879 236.835 82.9153 237.986 81.7534C239.134 80.5839 239.711 78.7444 239.711 76.2115C239.711 75.67 239.703 75.2796 239.691 75.011C239.684 74.7389 239.653 74.5047 239.605 74.3024Z" fill="#C00415"/>
<path fill-rule="evenodd" clip-rule="evenodd" d="M263.193 91.1873V53.3187H276.883V58.8631C278.65 56.6534 280.617 55.0129 282.792 53.9316C284.959 52.8444 287.417 52.3121 290.159 52.3121C292.458 52.3121 294.51 52.6966 296.325 53.4631C298.136 54.2296 299.671 55.3664 300.927 56.8759C302.061 58.2527 302.869 59.9125 303.345 61.8678C303.822 63.8408 304.062 67.0478 304.062 71.505V91.1873H289.008V71.578C289.008 68.7001 288.625 66.7154 287.857 65.634C287.092 64.5577 285.767 64.0146 283.888 64.0146C281.986 64.0146 280.568 64.6451 279.637 65.9002C278.706 67.1494 278.246 69.0703 278.246 71.6469V91.1873H263.193Z" fill="#C00415"/>
<path fill-rule="evenodd" clip-rule="evenodd" d="M337.61 79.9744H352.038C350.987 84.1074 348.697 87.2448 345.157 89.3655C341.612 91.4971 336.938 92.5526 331.131 92.5526C324.626 92.5526 319.467 90.7483 315.645 87.1323C311.822 83.5231 309.912 78.6697 309.912 72.5553C309.912 66.189 311.863 61.171 315.766 57.4896C319.67 53.804 324.974 51.962 331.689 51.962C338.422 51.962 343.702 53.9694 347.525 57.9782C351.346 61.9812 353.255 67.5398 353.255 74.6491V75.5516L325.002 75.581C325.068 77.9989 325.706 79.861 326.916 81.1774C328.124 82.4871 329.807 83.1411 331.965 83.1411C333.431 83.1411 334.649 82.8775 335.624 82.3226C336.598 81.7819 337.261 80.9919 337.61 79.9744V79.9744ZM325.002 67.9915H338.414C338.244 65.6424 337.599 63.8836 336.462 62.7124C335.321 61.5354 333.685 60.9485 331.547 60.9485C329.575 60.9485 328.014 61.5706 326.862 62.8107C325.714 64.0574 325.092 65.7843 325.002 67.9915Z" fill="#C00415"/>
<path fill-rule="evenodd" clip-rule="evenodd" d="M354.577 91.1873L367.994 71.3027L355.66 53.3187H372.068L376.914 62.3044L381.93 53.3187H398.34L385.62 71.1583L398.76 91.1873H381.996L376.426 80.7031L371.162 91.1873H354.577Z" fill="#C00415"/>
<path fill-rule="evenodd" clip-rule="evenodd" d="M427.326 76.4197H442.379C442.049 81.4201 440.058 85.3508 436.399 88.2321C432.745 91.1093 427.882 92.5526 421.821 92.5526C415.116 92.5526 409.797 90.7306 405.901 87.0803C401.997 83.4358 400.044 78.4816 400.044 72.2052C400.044 65.9321 401.972 60.9922 405.828 57.3821C409.69 53.767 414.972 51.962 421.683 51.962C427.77 51.962 432.669 53.3909 436.386 56.2311C440.101 59.0772 442.049 62.898 442.237 67.7102H427.187C427.023 65.9229 426.489 64.6014 425.586 63.7392C424.677 62.8778 423.359 62.4496 421.612 62.4496C419.43 62.4496 417.829 63.2329 416.81 64.8071C415.781 66.3687 415.272 68.8352 415.272 72.2052C415.272 75.6121 415.763 78.1198 416.75 79.6965C417.736 81.2757 419.314 82.0682 421.471 82.0682C423.216 82.0682 424.58 81.5938 425.566 80.6368C426.551 79.6881 427.139 78.2734 427.326 76.4197V76.4197Z" fill="white"/>
<path fill-rule="evenodd" clip-rule="evenodd" d="M446.56 72.2052C446.56 65.9321 448.46 60.9922 452.277 57.3821C456.076 53.767 461.322 51.962 467.989 51.962C474.658 51.962 479.886 53.767 483.683 57.3821C487.479 60.9922 489.379 65.9321 489.379 72.2052C489.379 78.5161 487.472 83.4879 483.667 87.1181C479.852 90.7365 474.628 92.5526 467.989 92.5526C461.344 92.5526 456.116 90.7365 452.288 87.1181C448.466 83.4879 446.56 78.5161 446.56 72.2052V72.2052ZM461.787 72.2052C461.787 75.7078 462.271 78.2298 463.234 79.7687C464.196 81.3042 465.776 82.0682 467.989 82.0682C470.196 82.0682 471.792 81.2933 472.777 79.7452C473.763 78.2012 474.258 75.691 474.258 72.2052C474.258 68.7429 473.763 66.2528 472.777 64.729C471.792 63.2128 470.196 62.4496 467.989 62.4496C465.776 62.4496 464.196 63.2044 463.234 64.7173C462.271 66.2209 461.787 68.7227 461.787 72.2052Z" fill="white"/>
<path fill-rule="evenodd" clip-rule="evenodd" d="M495.541 91.1873V53.3187H509.232V58.8631C511.001 56.6534 512.969 55.0129 515.142 53.9316C517.313 52.8444 519.772 52.3121 522.512 52.3121C524.81 52.3121 526.861 52.6966 528.68 53.4631C530.487 54.2296 532.023 55.3664 533.277 56.8759C534.414 58.2527 535.219 59.9125 535.699 61.8678C536.175 63.8408 536.416 67.0478 536.416 71.505V91.1873H521.357V71.578C521.357 68.7001 520.978 66.7154 520.212 65.634C519.445 64.5577 518.12 64.0146 516.237 64.0146C514.331 64.0146 512.92 64.6451 511.982 65.9002C511.059 67.1494 510.594 69.0703 510.594 71.6469V91.1873H495.541Z" fill="white"/>
<path fill-rule="evenodd" clip-rule="evenodd" d="M142.014 99.9917H145.498L150.778 114.644H147.615L146.617 111.634H140.943L139.975 114.644H136.803L142.014 99.9917ZM143.763 102.93L141.737 109.163H145.804L143.763 102.93Z" fill="white"/>
<path fill-rule="evenodd" clip-rule="evenodd" d="M151.612 110.117H154.586C154.7 110.925 155.027 111.518 155.573 111.905C156.114 112.296 156.901 112.489 157.931 112.489C158.803 112.489 159.466 112.331 159.908 112.018C160.35 111.708 160.577 111.243 160.577 110.635C160.577 109.747 159.299 109.014 156.746 108.426L156.658 108.418C156.588 108.397 156.488 108.374 156.349 108.336C154.982 108.042 154.007 107.709 153.423 107.333C152.907 107.001 152.511 106.558 152.237 105.994C151.968 105.432 151.832 104.776 151.832 104.009C151.832 102.59 152.317 101.493 153.284 100.733C154.253 99.9803 155.65 99.5983 157.479 99.5983C159.19 99.5983 160.529 100.001 161.494 100.802C162.459 101.621 162.969 102.754 163.021 104.233H160.126C160.076 103.521 159.801 102.982 159.309 102.607C158.822 102.234 158.121 102.054 157.212 102.054C156.422 102.054 155.817 102.216 155.387 102.517C154.961 102.826 154.746 103.263 154.746 103.836C154.746 104.608 155.577 105.187 157.242 105.574C157.694 105.678 158.048 105.766 158.297 105.829C159.366 106.098 160.123 106.306 160.569 106.465C161.015 106.619 161.407 106.777 161.738 106.965C162.337 107.295 162.784 107.741 163.081 108.278C163.379 108.831 163.531 109.491 163.531 110.246C163.531 111.773 163.013 112.953 161.988 113.792C160.959 114.63 159.51 115.049 157.641 115.049C155.795 115.049 154.35 114.625 153.304 113.772C152.257 112.915 151.692 111.7 151.612 110.118V110.117Z" fill="white"/>
<path fill-rule="evenodd" clip-rule="evenodd" d="M165.577 110.117H168.55C168.664 110.925 168.994 111.518 169.538 111.905C170.08 112.296 170.863 112.489 171.895 112.489C172.768 112.489 173.428 112.331 173.872 112.018C174.319 111.708 174.539 111.243 174.539 110.635C174.539 109.747 173.263 109.014 170.712 108.426L170.622 108.418C170.556 108.397 170.454 108.374 170.312 108.336C168.947 108.042 167.972 107.709 167.386 107.333C166.869 107.001 166.477 106.558 166.205 105.994C165.933 105.432 165.798 104.776 165.798 104.009C165.798 102.59 166.281 101.493 167.247 100.733C168.217 99.9803 169.617 99.5983 171.447 99.5983C173.156 99.5983 174.498 100.001 175.46 100.802C176.423 101.621 176.933 102.754 176.989 104.233H174.09C174.038 103.521 173.769 102.982 173.276 102.607C172.786 102.234 172.089 102.054 171.177 102.054C170.388 102.054 169.78 102.216 169.351 102.517C168.923 102.826 168.711 103.263 168.711 103.836C168.711 104.608 169.545 105.187 171.207 105.574C171.657 105.678 172.011 105.766 172.259 105.829C173.33 106.098 174.089 106.306 174.535 106.465C174.981 106.619 175.372 106.777 175.701 106.965C176.298 107.295 176.747 107.741 177.046 108.278C177.344 108.831 177.494 109.491 177.494 110.246C177.494 111.773 176.979 112.953 175.953 113.792C174.924 114.63 173.474 115.049 171.605 115.049C169.762 115.049 168.316 114.625 167.267 113.772C166.221 112.915 165.656 111.7 165.577 110.118V110.117Z" fill="white"/>
<path fill-rule="evenodd" clip-rule="evenodd" d="M179.84 114.644V99.9917H190.481V102.537H182.813V105.664H189.827V108.171H182.813V111.94H190.841V114.644H179.84Z" fill="white"/>
<path fill-rule="evenodd" clip-rule="evenodd" d="M192.462 110.117H195.435C195.55 110.925 195.878 111.518 196.422 111.905C196.967 112.296 197.75 112.489 198.781 112.489C199.654 112.489 200.312 112.331 200.76 112.018C201.201 111.708 201.425 111.243 201.425 110.635C201.425 109.747 200.148 109.014 197.593 108.426L197.504 108.418C197.44 108.397 197.334 108.374 197.197 108.336C195.831 108.042 194.856 107.709 194.274 107.333C193.756 107.001 193.361 106.558 193.089 105.994C192.817 105.432 192.683 104.776 192.683 104.009C192.683 102.59 193.165 101.493 194.134 100.733C195.1 99.9803 196.501 99.5983 198.331 99.5983C200.043 99.5983 201.377 100.001 202.344 100.802C203.311 101.621 203.819 102.754 203.869 104.233H200.974C200.922 103.521 200.652 102.982 200.162 102.607C199.67 102.234 198.97 102.054 198.061 102.054C197.27 102.054 196.663 102.216 196.237 102.517C195.81 102.826 195.595 103.263 195.595 103.836C195.595 104.608 196.427 105.187 198.087 105.574C198.543 105.678 198.892 105.766 199.147 105.829C200.212 106.098 200.97 106.306 201.419 106.465C201.867 106.619 202.256 106.777 202.59 106.965C203.182 107.295 203.632 107.741 203.929 108.278C204.227 108.831 204.377 109.491 204.377 110.246C204.377 111.773 203.863 112.953 202.837 113.792C201.809 114.63 200.362 115.049 198.487 115.049C196.647 115.049 195.201 114.625 194.154 113.772C193.105 112.915 192.543 111.7 192.462 110.118V110.117Z" fill="white"/>
<path fill-rule="evenodd" clip-rule="evenodd" d="M206.427 110.117H209.403C209.515 110.925 209.843 111.518 210.384 111.905C210.932 112.296 211.715 112.489 212.742 112.489C213.62 112.489 214.276 112.331 214.725 112.018C215.165 111.708 215.39 111.243 215.39 110.635C215.39 109.747 214.114 109.014 211.556 108.426L211.469 108.418C211.404 108.397 211.3 108.374 211.161 108.336C209.795 108.042 208.821 107.709 208.238 107.333C207.722 107.001 207.323 106.558 207.057 105.994C206.783 105.432 206.647 104.776 206.647 104.009C206.647 102.59 207.129 101.493 208.098 100.733C209.063 99.9803 210.466 99.5983 212.295 99.5983C214.007 99.5983 215.343 100.001 216.31 100.802C217.276 101.621 217.783 102.754 217.833 104.233H214.941C214.887 103.521 214.616 102.982 214.124 102.607C213.634 102.234 212.934 102.054 212.027 102.054C211.236 102.054 210.63 102.216 210.204 102.517C209.773 102.826 209.561 103.263 209.561 103.836C209.561 104.608 210.393 105.187 212.057 105.574C212.509 105.678 212.859 105.766 213.11 105.829C214.176 106.098 214.934 106.306 215.387 106.465C215.831 106.619 216.222 106.777 216.552 106.965C217.151 107.295 217.597 107.741 217.894 108.278C218.194 108.831 218.343 109.491 218.343 110.246C218.343 111.773 217.828 112.953 216.804 113.792C215.773 114.63 214.326 115.049 212.453 115.049C210.614 115.049 209.165 114.625 208.117 113.772C207.071 112.915 206.509 111.7 206.427 110.118V110.117Z" fill="white"/>
<path fill-rule="evenodd" clip-rule="evenodd" d="M220.052 107.333C220.052 104.964 220.697 103.09 221.987 101.699C223.277 100.318 225.015 99.6189 227.204 99.6189C229.391 99.6189 231.135 100.318 232.432 101.707C233.729 103.098 234.375 104.967 234.375 107.333C234.375 109.693 233.729 111.57 232.432 112.967C231.135 114.356 229.391 115.049 227.204 115.049C225.015 115.049 223.277 114.356 221.987 112.967C220.697 111.57 220.052 109.693 220.052 107.333ZM223.127 107.333C223.127 108.946 223.485 110.191 224.202 111.092C224.918 111.98 225.916 112.426 227.204 112.426C228.505 112.426 229.516 111.98 230.239 111.092C230.963 110.191 231.323 108.946 231.323 107.333C231.323 105.722 230.963 104.475 230.239 103.578C229.516 102.684 228.505 102.242 227.204 102.242C225.916 102.242 224.918 102.684 224.202 103.576C223.485 104.461 223.127 105.716 223.127 107.333V107.333Z" fill="white"/>
<path fill-rule="evenodd" clip-rule="evenodd" d="M236.763 114.644V99.9917H243.866C245.462 99.9917 246.644 100.336 247.415 101.016C248.183 101.699 248.57 102.748 248.57 104.154C248.57 105.042 248.382 105.791 248.008 106.392C247.631 106.985 247.092 107.397 246.39 107.617C247.026 107.841 247.481 108.18 247.747 108.654C248.018 109.106 248.173 109.829 248.21 110.818L248.269 112.545C248.269 112.559 248.269 112.582 248.269 112.605C248.291 113.482 248.478 114.008 248.84 114.202V114.644H245.535C245.429 114.439 245.349 114.182 245.29 113.884C245.235 113.583 245.201 113.221 245.188 112.807L245.149 111.269C245.114 110.355 244.942 109.747 244.637 109.424C244.327 109.106 243.772 108.946 242.969 108.946H239.777V114.644H236.763ZM239.777 106.398H243.318C244.087 106.398 244.653 106.236 245.013 105.936C245.371 105.62 245.557 105.135 245.557 104.455C245.557 103.824 245.377 103.341 245.029 103.014C244.675 102.684 244.153 102.517 243.46 102.517H239.777V106.398Z" fill="white"/>
<path fill-rule="evenodd" clip-rule="evenodd" d="M251.405 114.644V99.9917H254.418V114.644H251.405Z" fill="white"/>
<path fill-rule="evenodd" clip-rule="evenodd" d="M261.261 99.9917H264.741L270.022 114.644H266.861L265.866 111.634H260.189L259.221 114.644H256.049L261.261 99.9917ZM263.012 102.93L260.981 109.163H265.05L263.012 102.93Z" fill="white"/>
<path fill-rule="evenodd" clip-rule="evenodd" d="M277.325 114.644V99.9917H287.963V102.537H280.297V105.664H287.308V108.171H280.297V111.94H288.323V114.644H277.325Z" fill="white"/>
<path fill-rule="evenodd" clip-rule="evenodd" d="M309.16 109.612C309.05 111.28 308.406 112.599 307.238 113.583C306.066 114.564 304.538 115.049 302.658 115.049C300.488 115.049 298.803 114.378 297.6 113.022C296.395 111.671 295.79 109.777 295.79 107.333C295.79 104.845 296.409 102.936 297.634 101.606C298.861 100.278 300.624 99.6189 302.926 99.6189C304.797 99.6189 306.274 100.079 307.358 100.978C308.442 101.895 309.038 103.185 309.141 104.848H306.171C306.042 104.015 305.706 103.388 305.154 102.951C304.603 102.517 303.86 102.3 302.926 102.3C301.601 102.3 300.592 102.736 299.902 103.587C299.211 104.443 298.869 105.69 298.869 107.333C298.869 108.929 299.207 110.159 299.897 111.029C300.583 111.897 301.561 112.331 302.824 112.331C303.743 112.331 304.493 112.093 305.073 111.628C305.658 111.156 306.035 110.485 306.207 109.612H309.16Z" fill="white"/>
<path fill-rule="evenodd" clip-rule="evenodd" d="M310.93 107.333C310.93 104.964 311.576 103.09 312.868 101.699C314.16 100.318 315.892 99.6189 318.083 99.6189C320.274 99.6189 322.015 100.318 323.311 101.707C324.605 103.098 325.254 104.967 325.254 107.333C325.254 109.693 324.605 111.57 323.311 112.967C322.015 114.356 320.274 115.049 318.083 115.049C315.892 115.049 314.16 114.356 312.868 112.967C311.576 111.57 310.93 109.693 310.93 107.333ZM314.004 107.333C314.004 108.946 314.364 110.191 315.079 111.092C315.795 111.98 316.798 112.426 318.083 112.426C319.382 112.426 320.395 111.98 321.119 111.092C321.84 110.191 322.2 108.946 322.2 107.333C322.2 105.722 321.84 104.475 321.119 103.578C320.395 102.684 319.382 102.242 318.083 102.242C316.798 102.242 315.795 102.684 315.079 103.576C314.364 104.461 314.004 105.716 314.004 107.333V107.333Z" fill="white"/>
<path fill-rule="evenodd" clip-rule="evenodd" d="M327.642 114.644V99.9917H330.794L336.743 110.065V99.9917H339.717V114.644H336.604L330.616 104.585V114.644H327.642Z" fill="white"/>
<path fill-rule="evenodd" clip-rule="evenodd" d="M342.062 110.117H345.037C345.151 110.925 345.479 111.518 346.027 111.905C346.57 112.296 347.35 112.489 348.379 112.489C349.258 112.489 349.914 112.331 350.359 112.018C350.805 111.708 351.031 111.243 351.031 110.635C351.031 109.747 349.75 109.014 347.2 108.426L347.104 108.418C347.041 108.397 346.94 108.374 346.802 108.336C345.431 108.042 344.458 107.709 343.874 107.333C343.358 107.001 342.961 106.558 342.693 105.994C342.417 105.432 342.281 104.776 342.281 104.009C342.281 102.59 342.767 101.493 343.736 100.733C344.704 99.9803 346.105 99.5983 347.931 99.5983C349.644 99.5983 350.981 100.001 351.945 100.802C352.913 101.621 353.419 102.754 353.475 104.233H350.578C350.526 103.521 350.251 102.982 349.764 102.607C349.272 102.234 348.574 102.054 347.663 102.054C346.872 102.054 346.266 102.216 345.836 102.517C345.411 102.826 345.197 103.263 345.197 103.836C345.197 104.608 346.03 105.187 347.697 105.574C348.145 105.678 348.496 105.766 348.749 105.829C349.814 106.098 350.575 106.306 351.023 106.465C351.466 106.619 351.862 106.777 352.19 106.965C352.787 107.295 353.232 107.741 353.535 108.278C353.837 108.831 353.978 109.491 353.978 110.246C353.978 111.773 353.463 112.953 352.435 113.792C351.41 114.63 349.962 115.049 348.093 115.049C346.251 115.049 344.801 114.625 343.754 113.772C342.707 112.915 342.144 111.7 342.062 110.118V110.117Z" fill="white"/>
<path fill-rule="evenodd" clip-rule="evenodd" d="M356.239 99.9514H359.279V109.14C359.279 110.283 359.508 111.107 359.955 111.628C360.408 112.148 361.121 112.411 362.105 112.411C363.1 112.411 363.829 112.148 364.281 111.634C364.735 111.112 364.963 110.289 364.963 109.14V99.9514H367.972V109.473C367.972 111.274 367.471 112.649 366.469 113.609C365.461 114.566 364.017 115.049 362.126 115.049C360.222 115.049 358.765 114.572 357.752 113.623C356.745 112.657 356.239 111.28 356.239 109.473V99.9514Z" fill="white"/>
<path fill-rule="evenodd" clip-rule="evenodd" d="M370.936 114.644V99.9917H373.944V111.94H381.094V114.644H370.936Z" fill="white"/>
<path fill-rule="evenodd" clip-rule="evenodd" d="M384.113 114.644V102.607H379.767V99.9917H391.443V102.607H387.13V114.644H384.113Z" fill="white"/>
<path fill-rule="evenodd" clip-rule="evenodd" d="M392.553 107.333C392.553 104.964 393.196 103.09 394.488 101.699C395.776 100.318 397.513 99.6189 399.703 99.6189C401.893 99.6189 403.634 100.318 404.931 101.707C406.226 103.098 406.876 104.967 406.876 107.333C406.876 109.693 406.226 111.57 404.931 112.967C403.634 114.356 401.893 115.049 399.703 115.049C397.513 115.049 395.776 114.356 394.488 112.967C393.196 111.57 392.553 109.693 392.553 107.333ZM395.624 107.333C395.624 108.946 395.979 110.191 396.697 111.092C397.412 111.98 398.416 112.426 399.703 112.426C401.002 112.426 402.014 111.98 402.734 111.092C403.46 110.191 403.823 108.946 403.823 107.333C403.823 105.722 403.46 104.475 402.734 103.578C402.014 102.684 401.002 102.242 399.703 102.242C398.416 102.242 397.412 102.684 396.697 103.576C395.979 104.461 395.624 105.716 395.624 107.333V107.333Z" fill="white"/>
<path fill-rule="evenodd" clip-rule="evenodd" d="M409.262 114.644V99.9917H416.359C417.96 99.9917 419.148 100.336 419.918 101.016C420.684 101.699 421.065 102.748 421.065 104.154C421.065 105.042 420.88 105.791 420.506 106.392C420.131 106.985 419.588 107.397 418.892 107.617C419.53 107.841 419.98 108.18 420.25 108.654C420.512 109.106 420.669 109.829 420.708 110.818L420.77 112.545C420.77 112.559 420.77 112.582 420.77 112.605C420.789 113.482 420.982 114.008 421.335 114.202V114.644H418.033C417.93 114.439 417.85 114.182 417.788 113.884C417.736 113.583 417.699 113.221 417.684 112.807L417.648 111.269C417.612 110.355 417.447 109.747 417.134 109.424C416.825 109.106 416.275 108.946 415.469 108.946H412.273V114.644H409.262ZM412.273 106.398H415.815C416.585 106.398 417.149 106.236 417.51 105.936C417.874 105.62 418.053 105.135 418.053 104.455C418.053 103.824 417.881 103.341 417.526 103.014C417.17 102.684 416.65 102.517 415.955 102.517H412.273V106.398Z" fill="white"/>
<path fill-rule="evenodd" clip-rule="evenodd" d="M423.903 114.644V99.9917H426.918V114.644H423.903Z" fill="white"/>
<path fill-rule="evenodd" clip-rule="evenodd" d="M433.758 99.9917H437.244L442.521 114.644H439.356L438.364 111.634H432.684L431.721 114.644H428.548L433.758 99.9917ZM435.51 102.93L433.479 109.163H437.551L435.51 102.93Z" fill="white"/>
<path fill-rule="evenodd" clip-rule="evenodd" d="M452.833 109.43V114.644H449.824V99.9917H456.334C457.879 99.9917 459.04 100.394 459.835 101.192C460.624 101.987 461.017 103.159 461.017 104.703C461.017 106.225 460.632 107.393 459.857 108.203C459.082 109.019 457.976 109.43 456.535 109.43H452.833ZM452.858 106.777H455.77C456.554 106.777 457.137 106.618 457.49 106.277C457.853 105.938 458.026 105.409 458.026 104.66C458.026 103.969 457.853 103.436 457.497 103.072C457.15 102.719 456.625 102.537 455.928 102.537H452.858V106.777Z" fill="white"/>
<path fill-rule="evenodd" clip-rule="evenodd" d="M463.322 99.9514H466.364V109.14C466.364 110.283 466.586 111.107 467.043 111.628C467.493 112.148 468.209 112.411 469.188 112.411C470.181 112.411 470.909 112.148 471.36 111.634C471.816 111.112 472.043 110.289 472.043 109.14V99.9514H475.056V109.473C475.056 111.274 474.55 112.649 473.55 113.609C472.546 114.566 471.098 115.049 469.206 115.049C467.303 115.049 465.849 114.572 464.838 113.623C463.824 112.657 463.322 111.28 463.322 109.473V99.9514ZM472.12 95.0283L469.006 98.7131H467.601L469.558 95.0283H472.12Z" fill="white"/>
<path fill-rule="evenodd" clip-rule="evenodd" d="M478.014 114.644V99.9917H484.91C486.411 99.9917 487.556 100.318 488.336 100.946C489.126 101.577 489.517 102.494 489.517 103.706C489.517 104.446 489.372 105.065 489.083 105.562C488.789 106.066 488.352 106.442 487.768 106.714C488.527 107.02 489.089 107.463 489.463 108.035C489.835 108.608 490.023 109.322 490.023 110.175C490.023 111.608 489.561 112.707 488.634 113.482C487.708 114.26 486.389 114.644 484.686 114.644H478.014ZM480.893 105.664H484.335C485.076 105.664 485.625 105.539 485.967 105.285C486.313 105.025 486.484 104.623 486.484 104.073C486.484 103.529 486.316 103.144 485.982 102.91C485.651 102.661 485.091 102.537 484.317 102.537H480.893V105.664ZM480.893 111.998H484.462C485.306 111.998 485.917 111.848 486.305 111.544C486.693 111.232 486.883 110.76 486.883 110.101C486.883 109.418 486.693 108.929 486.316 108.62C485.931 108.324 485.316 108.171 484.449 108.171H480.893V111.998Z" fill="white"/>
<path fill-rule="evenodd" clip-rule="evenodd" d="M492.355 114.644V99.9917H495.365V111.94H502.519V114.644H492.355Z" fill="white"/>
<path fill-rule="evenodd" clip-rule="evenodd" d="M504.268 114.644V99.9917H507.282V114.644H504.268Z" fill="white"/>
<path fill-rule="evenodd" clip-rule="evenodd" d="M523.173 109.612C523.063 111.28 522.425 112.599 521.251 113.583C520.081 114.564 518.556 115.049 516.669 115.049C514.5 115.049 512.814 114.378 511.615 113.022C510.414 111.671 509.808 109.777 509.808 107.333C509.808 104.845 510.421 102.936 511.65 101.606C512.876 100.278 514.634 99.6189 516.937 99.6189C518.807 99.6189 520.285 100.079 521.371 100.978C522.458 101.895 523.052 103.185 523.158 104.848H520.182C520.058 104.015 519.721 103.388 519.169 102.951C518.618 102.517 517.874 102.3 516.937 102.3C515.611 102.3 514.607 102.736 513.921 103.587C513.232 104.443 512.882 105.69 512.882 107.333C512.882 108.929 513.225 110.159 513.913 111.029C514.593 111.897 515.576 112.331 516.839 112.331C517.756 112.331 518.503 112.093 519.086 111.628C519.665 111.156 520.051 110.485 520.218 109.612H523.173Z" fill="white"/>
<path fill-rule="evenodd" clip-rule="evenodd" d="M529.279 99.9917H532.764L538.045 114.644H534.881L533.885 111.634H528.207L527.243 114.644H524.074L529.279 99.9917ZM531.032 102.93L529.006 109.163H533.075L531.032 102.93Z" fill="white"/>
</svg>
